<svg height="512pt" viewBox="0 0 512 512" width="512pt" xmlns="http://www.w3.org/2000/svg"><path d="m512 256c0 141.386719-114.613281 256-256 256s-256-114.613281-256-256 114.613281-256 256-256 256 114.613281 256 256zm0 0" fill="#4a7aff"/><path d="m512 256c0-1.390625-.03125-2.777344-.054688-4.164062l-77.925781-77.929688-55.679687 53.320312-106.726563-106.726562-111.222656 123.226562 70.511719 70.515626-158.429688 71.667968 117.464844 117.46875c21.078125 5.613282 43.21875 8.621094 66.0625 8.621094 141.386719 0 256-114.613281 256-256zm0 0" fill="#0053bf"/><path d="m298.015625 181.207031c0 45.847657-37.167969 83.015625-83.015625 83.015625s-83.015625-37.167968-83.015625-83.015625c0-45.847656 37.167969-83.015625 83.015625-83.015625s83.015625 37.167969 83.015625 83.015625zm0 0" fill="#ffd400"/><path d="m215 98.191406c-.441406 0-.875.027344-1.316406.035156v165.960938c.441406.007812.875.035156 1.316406.035156 45.847656 0 83.015625-37.167968 83.015625-83.015625 0-45.847656-37.167969-83.015625-83.015625-83.015625zm0 0" fill="#fdba12"/><path d="m72.472656 385.910156h285.054688c-10.855469-68.949218-70.523438-121.6875-142.527344-121.6875s-131.671875 52.738282-142.527344 121.6875zm0 0" fill="#ffd400"/><path d="m215 264.222656c-.4375 0-.875.007813-1.316406.011719v121.675781h143.84375c-10.855469-68.949218-70.523438-121.6875-142.527344-121.6875zm0 0" fill="#fdba12"/><path d="m464.230469 247.238281c0 57.503907-46.613281 104.117188-104.117188 104.117188-57.5 0-104.113281-46.613281-104.113281-104.117188 0-57.5 46.613281-104.113281 104.113281-104.113281 57.503907 0 104.117188 46.613281 104.117188 104.113281zm0 0" fill="#fff"/><path d="m360.113281 143.125c-.089843 0-.183593.003906-.273437.003906v208.222656c.089844 0 .183594.003907.273437.003907 57.503907 0 104.117188-46.613281 104.117188-104.117188 0-57.5-46.613281-104.113281-104.117188-104.113281zm0 0" fill="#dce1eb"/><path d="m337.648438 317.972656-53.042969-53.042968 28.988281-28.992188 24.054688 24.054688 68.988281-68.988282 28.992187 28.988282zm0 0" fill="#414952"/><path d="m406.636719 191.003906-46.796875 46.796875v57.980469l75.789062-75.789062zm0 0" fill="#333940"/></svg>