<svg height="512pt" viewBox="0 0 512 512" width="512pt" xmlns="http://www.w3.org/2000/svg"><path d="m512 256c0 141.386719-114.613281 256-256 256s-256-114.613281-256-256 114.613281-256 256-256 256 114.613281 256 256zm0 0" fill="#3897ff"/><path d="m509.808594 289.570312-177.324219-177.320312-228.484375 263.980469 135.207031 135.207031c5.554688.359375 11.148438.5625 16.792969.5625 130.003906 0 237.363281-96.910156 253.808594-222.429688zm0 0" fill="#2d79cc"/><path d="m200.148438 376.230469c0 30.84375 25.007812 55.71875 55.851562 55.71875l15.300781-71.019531zm0 0" fill="#ff8a1e"/><path d="m256 431.949219c30.84375 0 55.851562-24.875 55.851562-55.71875l-55.851562-15.300781zm0 0" fill="#ff562b"/><path d="m104 330.324219v45.90625h152l15.300781-61.203125zm0 0" fill="#ffa418"/><path d="m256 80.050781c-54.875 0-99.082031 41.011719-107.242188 93.800781-3.90625 25.269532-17.761718 100.714844-17.761718 100.714844s140.304687 15.300782 140.304687 15.300782zm0 0" fill="#ffbe11"/><path d="m381.003906 274.566406s-13.855468-75.445312-17.761718-100.714844c-8.160157-52.789062-52.367188-93.800781-107.242188-93.800781v209.816407zm0 0" fill="#ff8a1e"/><path d="m256 315.027344v61.203125h152v-45.90625zm0 0" fill="#ff8a1e"/><path d="m256 274.566406h-125.003906c-16.429688 13.007813-26.996094 33.28125-26.996094 55.757813h152l15.300781-27.878907zm0 0" fill="#ffd460"/><path d="m381.003906 274.566406h-125.003906v55.757813h152c0-22.476563-10.566406-42.75-26.996094-55.757813zm0 0" fill="#ffa418"/></svg>